<svg width="108" height="108" viewBox="0 0 108 108" fill="none" xmlns="http://www.w3.org/2000/svg">
<circle cx="54" cy="54" r="54" fill="#F2E7F5"/>
<path d="M77.1256 52.2748C76.4629 52.2748 75.8274 52.0305 75.3589 51.5956C74.8904 51.1607 74.6271 50.5709 74.6271 49.9559V43.4075C74.6271 34.1322 65.3929 26.7119 54.04 26.7119C42.6871 26.7119 33.4528 34.2249 33.4528 43.4075V49.9559C33.4528 50.5709 33.1896 51.1607 32.7211 51.5956C32.2525 52.0305 31.617 52.2748 30.9544 52.2748C30.2918 52.2748 29.6563 52.0305 29.1877 51.5956C28.7192 51.1607 28.456 50.5709 28.456 49.9559V43.4075C28.456 31.6093 39.9488 22 54.04 22C68.1312 22 79.624 31.6093 79.624 43.4075V49.9559C79.6267 50.2611 79.5639 50.5638 79.4392 50.8462C79.3146 51.1287 79.1307 51.3853 78.8982 51.6011C78.6656 51.8169 78.3891 51.9876 78.0848 52.1033C77.7805 52.219 77.4544 52.2773 77.1256 52.2748V52.2748Z" fill="#A343AE"/>
<path d="M70.3698 74.0904C69.7071 74.0904 69.0717 73.8461 68.6031 73.4113C68.1346 72.9764 67.8713 72.3866 67.8713 71.7716V49.7519C67.8921 49.1498 68.1645 48.5789 68.6308 48.16C69.0971 47.741 69.7208 47.5069 70.3698 47.5072C78.9844 47.5072 86 53.4991 86 60.8452C86 68.1913 78.9844 74.0904 70.3698 74.0904ZM72.8682 52.3119V69.2116C75.0556 68.8755 77.0533 67.855 78.5295 66.3195C80.0057 64.7841 80.8715 62.8262 80.9831 60.771C80.8759 58.7126 80.0121 56.7503 78.5356 55.2111C77.059 53.6719 75.0588 52.6487 72.8682 52.3119ZM37.6302 74.0904C29.0156 74.0904 22 68.1171 22 60.771C22 53.4249 29.0156 47.5072 37.6302 47.5072C38.2929 47.5072 38.9283 47.7516 39.3969 48.1864C39.8654 48.6213 40.1287 49.2111 40.1287 49.8261V71.7716C40.1287 72.3866 39.8654 72.9764 39.3969 73.4113C38.9283 73.8461 38.2929 74.0904 37.6302 74.0904V74.0904ZM35.1318 52.3119C32.9412 52.6487 30.941 53.6719 29.4645 55.2111C27.9879 56.7503 27.1241 58.7126 27.0169 60.771C27.1285 62.8262 27.9943 64.7841 29.4705 66.3195C30.9467 67.855 32.9444 68.8755 35.1318 69.2116V52.3119Z" fill="#A343AE"/>
<path d="M69.5503 81.6406H61.2755C60.6128 81.6406 59.9773 81.3963 59.5088 80.9614C59.0403 80.5265 58.777 79.9367 58.777 79.3217C58.777 78.7067 59.0403 78.1169 59.5088 77.6821C59.9773 77.2472 60.6128 77.0029 61.2755 77.0029H69.5503C70.8437 77.0029 72.0842 76.526 72.9988 75.6772C73.9134 74.8283 74.4272 73.677 74.4272 72.4765V71.4562C74.4272 70.8412 74.6905 70.2514 75.159 69.8166C75.6276 69.3817 76.2631 69.1374 76.9257 69.1374C77.5883 69.1374 78.2238 69.3817 78.6923 69.8166C79.1609 70.2514 79.4241 70.8412 79.4241 71.4562V72.4765C79.4241 74.907 78.3838 77.2379 76.5321 78.9565C74.6804 80.6751 72.169 81.6406 69.5503 81.6406V81.6406Z" fill="#A343AE"/>
<path d="M56.9981 86H52.0612C50.2483 86 48.5096 85.3316 47.2276 84.1418C45.9457 82.952 45.2255 81.3383 45.2255 79.6556V79.3959C45.2308 77.7165 45.9533 76.1076 47.2347 74.9218C48.5161 73.736 50.2517 73.0701 52.0612 73.0701H56.9981C58.8058 73.0701 60.5394 73.7366 61.8176 74.9229C63.0958 76.1092 63.8139 77.7182 63.8139 79.3959V79.6556C63.8139 81.3351 63.0964 82.946 61.8188 84.1352C60.5412 85.3245 58.8076 85.9951 56.9981 86ZM52.1012 77.7078C51.6169 77.7078 51.1522 77.8851 50.808 78.2011C50.4637 78.5172 50.2676 78.9465 50.2623 79.3959V79.6556C50.2623 80.1083 50.4561 80.5424 50.8009 80.8624C51.1458 81.1825 51.6135 81.3623 52.1012 81.3623H56.9981C57.4824 81.3574 57.945 81.1755 58.2855 80.8559C58.626 80.5364 58.817 80.1051 58.817 79.6556V79.3959C58.817 78.9482 58.6254 78.5188 58.2843 78.2023C57.9432 77.8857 57.4805 77.7078 56.9981 77.7078H52.1012Z" fill="#A343AE"/>
</svg>
