<svg width="108" height="108" viewBox="0 0 108 108" fill="none" xmlns="http://www.w3.org/2000/svg">
<circle cx="54" cy="54" r="54" fill="#E9F4F6"/>
<path d="M81.5 61.2V37.7" stroke="#6F9695" stroke-width="2" stroke-miterlimit="10" stroke-linecap="round" stroke-linejoin="round"/>
<path d="M24 37.7V77.6C24 80.2 26.1 82.3 28.7 82.3H64.8L24 37.7ZM81.5 37.7H24V30.4C24 28 26 26 28.4 26H77.1C79.5 26 81.5 28 81.5 30.4V37.7Z" stroke="#6F9695" stroke-width="2" stroke-miterlimit="10" stroke-linecap="round" stroke-linejoin="round"/>
<path d="M30.9 34.2C32.2255 34.2 33.3 33.1703 33.3 31.9C33.3 30.6297 32.2255 29.6 30.9 29.6C29.5745 29.6 28.5 30.6297 28.5 31.9C28.5 33.1703 29.5745 34.2 30.9 34.2Z" stroke="#6F9695" stroke-width="2" stroke-miterlimit="10" stroke-linecap="round" stroke-linejoin="round"/>
<path d="M38.1 34.2C39.4255 34.2 40.5 33.1703 40.5 31.9C40.5 30.6297 39.4255 29.6 38.1 29.6C36.7745 29.6 35.7 30.6297 35.7 31.9C35.7 33.1703 36.7745 34.2 38.1 34.2Z" stroke="#6F9695" stroke-width="2" stroke-miterlimit="10" stroke-linecap="round" stroke-linejoin="round"/>
<path d="M45.3 34.2C46.6255 34.2 47.7 33.1703 47.7 31.9C47.7 30.6297 46.6255 29.6 45.3 29.6C43.9745 29.6 42.9 30.6297 42.9 31.9C42.9 33.1703 43.9745 34.2 45.3 34.2Z" stroke="#6F9695" stroke-width="2" stroke-miterlimit="10" stroke-linecap="round" stroke-linejoin="round"/>
<path d="M75.3 33.4H55.1C54.2 33.4 53.5 32.7 53.5 31.8C53.5 30.9 54.2 30.2 55.1 30.2H75.3C76.2 30.2 76.9 30.9 76.9 31.8C76.9 32.7 76.2 33.4 75.3 33.4ZM49 52.9C49 55.6 47.9 58 46 59.7C44.3 61.3 42.1 62.2 39.6 62.2C37.1 62.2 34.9 61.2 33.2 59.7C31.4 58 30.2 55.6 30.2 52.9C30.2 47.7 34.4 43.5 39.6 43.5C44.8 43.5 49 47.7 49 52.9Z" stroke="#6F9695" stroke-width="2" stroke-miterlimit="10" stroke-linecap="round" stroke-linejoin="round"/>
<path d="M39.6 53.1C41.2016 53.1 42.5 51.8016 42.5 50.2C42.5 48.5984 41.2016 47.3 39.6 47.3C37.9984 47.3 36.7 48.5984 36.7 50.2C36.7 51.8016 37.9984 53.1 39.6 53.1Z" stroke="#6F9695" stroke-width="2" stroke-miterlimit="10" stroke-linecap="round" stroke-linejoin="round"/>
<path d="M33.2 59.7C34.2 57.1 36.7 55.3 39.6 55.3C42.5 55.3 45 57.1 46 59.7" stroke="#6F9695" stroke-width="2" stroke-miterlimit="10" stroke-linecap="round" stroke-linejoin="round"/>
<path d="M57.9 76.5H29.4" stroke="#6F9695" stroke-width="2" stroke-miterlimit="10" stroke-linecap="round" stroke-linejoin="round"/>
<path d="M56.3 68.4H29.4" stroke="#6F9695" stroke-width="2" stroke-miterlimit="10" stroke-linecap="round" stroke-linejoin="round"/>
<path d="M57.4 60.3H54.5" stroke="#6F9695" stroke-width="2" stroke-miterlimit="10" stroke-linecap="round" stroke-linejoin="round"/>
<path d="M71.8 52.3H54.5" stroke="#6F9695" stroke-width="2" stroke-miterlimit="10" stroke-linecap="round" stroke-linejoin="round"/>
<path d="M54.6 44.2H76.1" stroke="#6F9695" stroke-width="2" stroke-miterlimit="10" stroke-linecap="round" stroke-linejoin="round"/>
<path d="M84.7 62.2C85.4 62.4 86 63 86 63.8V65.6C86 70.2 85 74.8 82.9 79C80.7 83.3 77.7 86.4 73.7 87.9C73.3 88 72.9 88 72.6 87.9C68.6 86.4 65.6 83.3 63.4 79C61.3 74.9 60.3 70.3 60.3 65.6V63.8C60.3 63 60.8 62.4 61.6 62.2C66.2 61.2 69.6 59.3 72 56.6C72.6 55.9 73.8 55.9 74.4 56.6C76.7 59.3 80.1 61.2 84.7 62.2Z" stroke="#6F9695" stroke-width="2" stroke-miterlimit="10" stroke-linecap="round" stroke-linejoin="round"/>
<path d="M73.1 84.4C70.4 83.2 68.2 80.9 66.4 77.4C64.6 74 63.7 69.9 63.7 65.6V65.2C67.5 64.2 70.7 62.6 73.2 60.3C75.7 62.6 78.9 64.2 82.7 65.2V65.6C82.7 69.9 81.8 73.9 80 77.4C78 80.9 75.8 83.2 73.1 84.4Z" stroke="#6F9695" stroke-width="2" stroke-miterlimit="10" stroke-linecap="round" stroke-linejoin="round"/>
<path d="M74.8 73.3L75.3 75.4C75.4 75.8 75.1 76.2 74.6 76.2H71.6C71.2 76.2 70.8 75.8 70.9 75.4L71.4 73.2C71.4 73 71.4 72.7 71.2 72.6C70.5 72 70.1 71.1 70.3 70.1C70.5 68.9 71.5 67.9 72.7 67.8C74.4 67.6 75.9 68.9 75.9 70.6C75.9 71.4 75.5 72.2 75 72.7C74.8 72.9 74.7 73.1 74.8 73.3Z" stroke="#6F9695" stroke-width="2" stroke-miterlimit="10" stroke-linecap="round" stroke-linejoin="round"/>
</svg>
