<svg width="108" height="108" viewBox="0 0 108 108" fill="none" xmlns="http://www.w3.org/2000/svg">
<circle cx="54" cy="54" r="54" fill="#FBF0EE"/>
<path d="M85.1475 82.155C85.1505 82.122 85.1685 82.094 85.1685 82.061C85.1685 81.791 85.0485 81.521 84.8485 81.331L84.7685 81.251C84.7615 81.247 84.7545 81.245 84.7475 81.241L82.5145 79.166C82.1115 78.791 81.4775 78.813 81.1015 79.218C80.7255 79.622 80.7485 80.255 81.1535 80.631L81.6166 81.062H78.5686V62.712C78.5686 62.152 78.1186 61.712 77.5686 61.712H73.1485C72.5885 61.712 72.1485 62.152 72.1485 62.712V81.062H68.4986V66.402C68.4986 65.842 68.0486 65.402 67.4986 65.402H63.0785C62.5185 65.402 62.0785 65.842 62.0785 66.402V81.062H58.4286V71.932C58.4286 71.382 57.9786 70.932 57.4286 70.932H52.9986C52.4486 70.932 51.9986 71.382 51.9986 71.932V81.062H48.3586V68.242C48.3586 67.692 47.9086 67.242 47.3586 67.242H42.9286C42.3786 67.242 41.9286 67.692 41.9286 68.242V81.062H38.2786V75.622C38.2786 75.072 37.8386 74.622 37.2786 74.622H32.8586C32.3086 74.622 31.8586 75.072 31.8586 75.622V81.062H26.1686V26.544L26.6016 27.01C26.9796 27.415 27.6116 27.438 28.0156 27.061C28.4196 26.685 28.4425 26.052 28.0665 25.648L25.8986 23.316C25.8896 23.305 25.8745 23.302 25.8635 23.292C25.8245 23.256 25.7855 23.221 25.7385 23.19C25.7085 23.16 25.6686 23.14 25.6286 23.12C25.6186 23.11 25.6085 23.11 25.5985 23.11C25.5975 23.109 25.5966 23.11 25.5946 23.109C25.5616 23.093 25.5265 23.085 25.4905 23.073C25.4725 23.068 25.4515 23.06 25.4385 23.06C25.3885 23.05 25.3585 23.04 25.3085 23.03C25.2985 23.03 25.2885 23.03 25.2785 23.02C25.2385 23.01 25.2086 23 25.1686 23C25.1586 23 25.1385 23 25.1185 23.01C25.0105 23.016 24.9085 23.042 24.8095 23.079C24.7705 23.093 24.7375 23.115 24.6995 23.134C24.6635 23.154 24.6235 23.166 24.5885 23.19C24.5525 23.219 24.5155 23.252 24.4795 23.285C24.4665 23.298 24.4465 23.302 24.4345 23.316L22.2675 25.648C21.8916 26.052 21.9145 26.685 22.3195 27.061C22.5115 27.24 22.7565 27.329 23.0005 27.329C23.2685 27.329 23.5365 27.222 23.7325 27.01L24.1695 26.54V82.061C24.1695 82.611 24.6195 83.061 25.1695 83.061H32.7596C32.7896 83.071 32.8295 83.071 32.8595 83.071C32.8895 83.071 32.9295 83.071 32.9595 83.061H37.1796C37.2096 83.071 37.2495 83.071 37.2795 83.071C37.3195 83.071 37.3495 83.071 37.3795 83.061H42.8296C42.8596 83.071 42.8996 83.071 42.9296 83.071C42.9596 83.071 42.9996 83.071 43.0296 83.061H47.2596C47.2896 83.071 47.3196 83.071 47.3596 83.071C47.3896 83.071 47.4296 83.071 47.4596 83.061H52.8996C52.9296 83.071 52.9696 83.071 52.9996 83.071C53.0396 83.071 53.0696 83.071 53.0996 83.061H57.3295C57.3595 83.071 57.3996 83.071 57.4296 83.071C57.4596 83.071 57.4995 83.071 57.5295 83.061H62.9795C63.0095 83.071 63.0395 83.071 63.0795 83.071C63.1095 83.071 63.1496 83.071 63.1796 83.061H67.3995C67.4295 83.071 67.4595 83.071 67.4995 83.071C67.5295 83.071 67.5695 83.071 67.5995 83.061H73.0495C73.0795 83.071 73.1195 83.071 73.1495 83.071C73.1795 83.071 73.2195 83.071 73.2495 83.061H77.4695C77.4995 83.071 77.5395 83.071 77.5695 83.071C77.5995 83.071 77.6395 83.071 77.6695 83.061H81.6265L81.1545 83.5C80.7495 83.876 80.7266 84.509 81.1026 84.913C81.2996 85.125 81.5665 85.232 81.8345 85.232C82.0785 85.232 82.3225 85.144 82.5155 84.964L84.8345 82.809C84.8385 82.805 84.8455 82.804 84.8495 82.8C84.8995 82.75 84.9395 82.7 84.9795 82.64C85.0095 82.603 85.0326 82.554 85.0536 82.506C85.1086 82.397 85.1365 82.278 85.1475 82.155Z" fill="#F28A3F"/>
<path d="M35.4185 63.6C37.1585 63.6 38.5785 62.18 38.5785 60.44C38.5785 59.72 38.3385 59.06 37.9285 58.53L43.6285 51.68C44.0785 51.93 44.5885 52.07 45.1385 52.07C45.8985 52.07 46.5985 51.81 47.1385 51.36L52.1285 56.65C52.0785 56.88 52.0485 57.12 52.0485 57.37C52.0485 59.12 53.4685 60.54 55.2185 60.54C56.9585 60.54 58.3785 59.12 58.3785 57.37C58.3785 56.94 58.2885 56.53 58.1385 56.15L63.7485 48.69C64.2085 48.95 64.7285 49.1 65.2885 49.1C65.9175 49.1 66.5065 48.91 66.9965 48.591L72.6465 53.584C72.3475 54.063 72.1885 54.612 72.1885 55.21C72.1885 56.96 73.6085 58.37 75.3585 58.37C77.0985 58.37 78.5185 56.96 78.5185 55.21C78.5185 53.47 77.0985 52.05 75.3585 52.05C74.9395 52.05 74.5605 52.13 74.1915 52.279L68.2495 47.029C68.3795 46.689 68.4495 46.32 68.4495 45.94C68.4495 44.19 67.0295 42.77 65.2895 42.77C63.5395 42.77 62.1195 44.19 62.1195 45.94C62.1195 46.38 62.2095 46.8 62.3795 47.18L56.7795 54.63C56.3195 54.36 55.7895 54.21 55.2195 54.21C54.4695 54.21 53.7795 54.47 53.2395 54.9L48.2295 49.62C48.2795 49.39 48.3095 49.15 48.3095 48.91C48.3095 47.16 46.8895 45.74 45.1395 45.74C43.3995 45.74 41.9795 47.16 41.9795 48.91C41.9795 49.37 42.0795 49.8 42.2595 50.19L36.2795 57.4C36.0095 57.32 35.7195 57.28 35.4195 57.28C33.6695 57.28 32.2495 58.69 32.2495 60.44C32.2485 62.18 33.6685 63.6 35.4185 63.6Z" fill="#F28A3F"/>
</svg>
