<svg width="108" height="108" viewBox="0 0 108 108" fill="none" xmlns="http://www.w3.org/2000/svg">
<circle cx="54" cy="54" r="54" fill="#FAEAEB"/>
<path d="M80 27H28C26.4087 27 24.8826 27.6321 23.7574 28.7574C22.6321 29.8826 22 31.4087 22 33V75C22 76.5913 22.6321 78.1174 23.7574 79.2426C24.8826 80.3679 26.4087 81 28 81H80C81.5913 81 83.1174 80.3679 84.2426 79.2426C85.3679 78.1174 86 76.5913 86 75V33C86 31.4087 85.3679 29.8826 84.2426 28.7574C83.1174 27.6321 81.5913 27 80 27ZM76 33H80V37H76V33ZM70 33H74V37H70V33ZM64 33H68V37H64V33ZM82 75C82 75.5304 81.7893 76.0391 81.4142 76.4142C81.0391 76.7893 80.5304 77 80 77H28C27.4696 77 26.9609 76.7893 26.5858 76.4142C26.2107 76.0391 26 75.5304 26 75V43H82V75Z" fill="#C78B8B"/>
<path d="M44.74 47.47L33.54 58.67C33.1827 59.0514 32.9889 59.5575 33 60.08C32.9985 60.3432 33.0489 60.6041 33.1485 60.8478C33.248 61.0915 33.3946 61.3131 33.58 61.5L44.78 72.69L47.61 69.87L37.82 60.08L47.61 50.3L44.74 47.47ZM63.26 47.47L60.43 50.3L70.22 60.08L60.43 69.87L63.26 72.69L74.46 61.5C74.8198 61.1161 75.0138 60.6059 75 60.08C75.0004 59.5519 74.7919 59.045 74.42 58.67L63.26 47.47Z" fill="#C78B8B"/>
<path d="M54.5374 47.607L49.5364 72.6118L53.4587 73.3962L58.4597 48.3914L54.5374 47.607Z" fill="#C78B8B"/>
</svg>
